<svg width="54" height="46" viewBox="0 0 54 46" fill="none" xmlns="http://www.w3.org/2000/svg">
<path d="M27.478 3.95781C27.4316 3.88179 27.3678 3.81793 27.2918 3.77155C27.0278 3.61044 26.6831 3.69383 26.522 3.95781L3.38911 41.8602C3.33548 41.9481 3.30711 42.0491 3.30714 42.152C3.30714 42.4613 3.55788 42.712 3.86713 42.712H50.133C50.2359 42.712 50.3369 42.6836 50.4247 42.63C50.6887 42.4689 50.7721 42.1243 50.611 41.8603L27.478 3.95781ZM29.868 2.49908L53.001 40.4015C53.9677 41.9855 53.4673 44.0532 51.8834 45.02C51.3562 45.3417 50.7505 45.5119 50.1329 45.5119H3.86708C2.01142 45.5119 0.50708 44.0076 0.50708 42.1519C0.507092 41.5343 0.677314 40.9287 0.999049 40.4015L24.132 2.49908C25.0987 0.915107 27.1665 0.414772 28.7504 1.38148C29.2065 1.65985 29.5897 2.04298 29.868 2.49908ZM27 37.5599C28.2371 37.5599 29.24 36.5571 29.24 35.3199C29.24 34.0828 28.2371 33.0799 27 33.0799C25.7629 33.0799 24.76 34.0828 24.76 35.3199C24.76 36.5571 25.7629 37.5599 27 37.5599ZM27 13.4799C25.7629 13.4799 24.76 14.4828 24.76 15.7199V28.0399C24.76 29.2771 25.7629 30.2799 27 30.2799C28.2371 30.2799 29.24 29.2771 29.24 28.0399V15.7199C29.24 14.4828 28.2371 13.4799 27 13.4799Z" fill="#396283"/>
</svg>
