<svg width="55" height="58" viewBox="0 0 55 58" fill="none" xmlns="http://www.w3.org/2000/svg">
<path d="M35.875 20.25C35.875 19.0542 36.0983 17.8875 36.545 16.8375C36.9917 15.7875 37.5779 14.8542 38.3317 14.0667C39.0854 13.2792 39.9788 12.6375 40.9838 12.2C41.9888 11.7625 43.0775 11.5 44.25 11.5C45.4225 11.5 46.5113 11.7333 47.5163 12.2C48.5213 12.6667 49.4146 13.2792 50.1683 14.0667C50.9221 14.8542 51.5363 15.7875 51.955 16.8375C52.3738 17.8875 52.625 19.025 52.625 20.25C52.625 21.475 52.4017 22.6125 51.955 23.6625C51.5083 24.7125 50.9221 25.6458 50.1683 26.4333C49.4146 27.2208 48.5213 27.8625 47.5163 28.3C46.5113 28.7375 45.4225 29 44.25 29H10.75" stroke="#406F93" stroke-width="4.5" stroke-linecap="round" stroke-linejoin="round"/>
<path d="M35.8748 46.5C35.8748 47.6958 36.0982 48.8625 36.5448 49.9125C36.9915 50.9625 37.5778 51.8958 38.3315 52.6833C39.0853 53.4708 39.9786 54.1125 40.9836 54.55C41.9886 54.9875 43.0773 55.25 44.2498 55.25C45.4223 55.25 46.5111 55.0167 47.5161 54.55C48.5211 54.0833 49.4144 53.4708 50.1682 52.6833C50.9219 51.8958 51.5361 50.9625 51.9548 49.9125C52.3736 48.8625 52.6248 47.725 52.6248 46.5C52.6248 45.275 52.4015 44.1375 51.9548 43.0875C51.5082 42.0375 50.9219 41.1042 50.1682 40.3167C49.4144 39.5292 48.5211 38.8875 47.5161 38.45C46.5111 38.0125 45.4223 37.75 44.2498 37.75H5.1665" stroke="#406F93" stroke-width="4.5" stroke-linecap="round" stroke-linejoin="round"/>
<path d="M10.75 11.5C10.75 10.3042 10.9733 9.1375 11.42 8.0875C11.8667 7.0375 12.4529 6.10417 13.2067 5.31667C13.9604 4.52917 14.8538 3.8875 15.8588 3.45C16.8638 3.0125 17.9525 2.75 19.125 2.75C20.2975 2.75 21.3863 2.98333 22.3913 3.45C23.3963 3.91667 24.2896 4.52917 25.0433 5.31667C25.7971 6.10417 26.4113 7.0375 26.83 8.0875C27.2488 9.1375 27.5 10.275 27.5 11.5C27.5 12.725 27.2767 13.8625 26.83 14.9125C26.3833 15.9625 25.7971 16.8958 25.0433 17.6833C24.2896 18.4708 23.3963 19.1125 22.3913 19.55C21.3863 19.9875 20.2975 20.25 19.125 20.25H2.375" stroke="#406F93" stroke-width="4.5" stroke-linecap="round" stroke-linejoin="round"/>
</svg>
