<svg width="60" height="61" viewBox="0 0 60 61" fill="none" xmlns="http://www.w3.org/2000/svg">
<path d="M43.5002 21.125L33.7502 32.1562C28.3802 38.2187 28.3802 48.0625 33.7502 54.0312C39.1202 60 47.8802 60 53.2502 54.0312C58.6202 48.0625 58.6202 38.2187 53.2502 32.1562L43.5002 21.125Z" stroke="#406F93" stroke-width="4.5" stroke-linecap="round" stroke-linejoin="round"/>
<path d="M11.7298 17.6875L5.60984 24.9375C2.24984 28.9375 2.24984 35.375 5.60984 39.3125C8.96984 43.25 14.4898 43.2188 17.8798 39.3125C21.2698 35.4063 21.2398 28.9375 17.8798 24.9375L11.7598 17.6875" stroke="#406F93" stroke-width="4.5" stroke-linecap="round" stroke-linejoin="round"/>
<path d="M30.0002 2.375L25.9502 7.09375C23.7302 9.6875 23.7302 13.9062 25.9502 16.4687C28.1702 19.0312 31.8302 19.0312 34.0502 16.4687C36.2702 13.9062 36.2702 9.6875 34.0502 7.09375L30.0002 2.375Z" stroke="#406F93" stroke-width="4.5" stroke-linecap="round" stroke-linejoin="round"/>
</svg>
