<svg width="33" height="33" viewBox="0 0 33 33" fill="none" xmlns="http://www.w3.org/2000/svg">
<path d="M28.707 1.15039C29.5747 0.282907 30.982 0.282759 31.8496 1.15039C32.7172 2.01802 32.717 3.42524 31.8496 4.29297L19.6426 16.5L31.8496 28.707C32.7171 29.5748 32.7171 30.9819 31.8496 31.8496C30.982 32.7172 29.5747 32.7171 28.707 31.8496L16.5 19.6426L4.29297 31.8496C3.42524 32.717 2.01802 32.7172 1.15039 31.8496C0.282809 30.9819 0.283009 29.5749 1.15039 28.707L13.3574 16.5L1.15039 4.29297C0.282923 3.42523 0.282747 2.01802 1.15039 1.15039C2.01802 0.282748 3.42523 0.282925 4.29297 1.15039L16.5 13.3574L28.707 1.15039Z" fill="#406F93" stroke="#406F93"/>
</svg>
