<svg width="60" height="60" viewBox="0 0 60 60" fill="none" xmlns="http://www.w3.org/2000/svg">
<path d="M7.5 20H37.5M37.5 20C37.5 24.1421 40.8577 27.5 45 27.5C49.1423 27.5 52.5 24.1421 52.5 20C52.5 15.8579 49.1423 12.5 45 12.5C40.8577 12.5 37.5 15.8579 37.5 20ZM22.5 40H52.5M22.5 40C22.5 44.1422 19.1421 47.5 15 47.5C10.8579 47.5 7.5 44.1422 7.5 40C7.5 35.8577 10.8579 32.5 15 32.5C19.1421 32.5 22.5 35.8577 22.5 40Z" stroke="#406F93" stroke-width="4.5" stroke-linecap="round" stroke-linejoin="round"/>
</svg>
