<svg width="74" height="61" viewBox="0 0 74 61" fill="none" xmlns="http://www.w3.org/2000/svg">
<path d="M59.1 28.5425C62.16 28.7125 65.0925 30.0725 67.26 32.24C69.555 34.535 71 37.7225 71 41.25C71 44.7775 69.555 47.965 67.26 50.26C64.965 52.555 61.7775 54 58.25 54" stroke="#406F93" stroke-width="4.5" stroke-linecap="round" stroke-linejoin="round"/>
<path d="M49.7498 15.7501C49.7498 13.7951 49.3248 11.9251 48.5173 10.2676C47.7098 8.61006 46.6048 7.16506 45.2023 5.97506C43.7998 4.78506 42.1848 3.93506 40.3573 3.42506C38.5298 2.91506 36.5748 2.83006 34.5348 3.21256C33.2173 3.46756 31.9848 3.89256 30.8373 4.53006C29.6898 5.16756 28.6698 5.97506 27.7348 6.91006C26.7998 7.84506 26.0773 8.95006 25.4823 10.0976C24.8873 11.2451 24.5048 12.5201 24.3348 13.8801C24.3348 14.0501 24.2923 14.2201 24.2923 14.3901C24.2923 14.5601 24.2923 14.7301 24.2923 14.9001C24.2923 15.0701 24.2923 15.2401 24.2923 15.4101C24.2923 15.5801 24.2923 15.7501 24.2923 15.9201C24.2923 16.4726 24.2073 17.0251 24.0373 17.4926C23.8673 17.9601 23.6123 18.4276 23.2723 18.8101C22.9323 19.1926 22.5498 19.4901 22.0823 19.7026C21.6148 19.9151 21.1048 20.0001 20.5523 20.0001C18.6398 20.0001 16.8123 20.2551 15.0273 20.8076C13.2423 21.3601 11.6273 22.2101 10.1398 23.2726C8.65233 24.3351 7.33483 25.6526 6.27233 27.1401C5.20983 28.6276 4.40233 30.3276 3.89233 32.1551C3.08483 35.0026 3.04233 37.8076 3.55233 40.4001C4.06233 42.9926 5.20983 45.3726 6.73983 47.3701" stroke="#406F93" stroke-width="4.5" stroke-linecap="round" stroke-linejoin="round"/>
<path d="M29.86 48.6025L19.915 58.5475" stroke="#406F93" stroke-width="4.5" stroke-linecap="round" stroke-linejoin="round"/>
<path d="M30.2 31.0076L24.165 37.0001" stroke="#406F93" stroke-width="4.5" stroke-linecap="round" stroke-linejoin="round"/>
<path d="M47.2425 48.0076L41.25 54.0001" stroke="#406F93" stroke-width="4.5" stroke-linecap="round" stroke-linejoin="round"/>
</svg>
