<svg width="72" height="75" viewBox="0 0 72 75" fill="none" xmlns="http://www.w3.org/2000/svg">
<path d="M49.5 28.125L39.75 39.1562C34.38 45.2187 34.38 55.0625 39.75 61.0312C45.12 67 53.88 67 59.25 61.0312C64.62 55.0625 64.62 45.2187 59.25 39.1562L49.5 28.125Z" stroke="#406F93" stroke-width="4.5" stroke-linecap="round" stroke-linejoin="round"/>
<path d="M17.73 24.6875L11.61 31.9375C8.24997 35.9375 8.24997 42.375 11.61 46.3125C14.97 50.25 20.49 50.2188 23.88 46.3125C27.27 42.4063 27.24 35.9375 23.88 31.9375L17.76 24.6875" stroke="#406F93" stroke-width="4.5" stroke-linecap="round" stroke-linejoin="round"/>
<path d="M36 9.375L31.95 14.0937C29.73 16.6875 29.73 20.9062 31.95 23.4687C34.17 26.0312 37.83 26.0312 40.05 23.4687C42.27 20.9062 42.27 16.6875 40.05 14.0937L36 9.375Z" stroke="#406F93" stroke-width="4.5" stroke-linecap="round" stroke-linejoin="round"/>
</svg>
