<svg width="50" height="50" viewBox="0 0 50 50" fill="none" xmlns="http://www.w3.org/2000/svg">
<path d="M25 30.625C28.1066 30.625 30.625 28.1066 30.625 25C30.625 21.8934 28.1066 19.375 25 19.375C21.8934 19.375 19.375 21.8934 19.375 25C19.375 28.1066 21.8934 30.625 25 30.625Z" stroke="#396283" stroke-width="4" stroke-linecap="round" stroke-linejoin="round"/>
<path d="M25 41.875C34.3198 41.875 41.875 34.3198 41.875 25C41.875 15.6802 34.3198 8.125 25 8.125C15.6802 8.125 8.125 15.6802 8.125 25C8.125 34.3198 15.6802 41.875 25 41.875Z" stroke="#396283" stroke-width="4" stroke-linecap="round" stroke-linejoin="round"/>
<path d="M25 8.125V2.5" stroke="#396283" stroke-width="4" stroke-linecap="round" stroke-linejoin="round"/>
<path d="M41.875 25H47.5" stroke="#396283" stroke-width="4" stroke-linecap="round" stroke-linejoin="round"/>
<path d="M25 41.875V47.5" stroke="#396283" stroke-width="4" stroke-linecap="round" stroke-linejoin="round"/>
<path d="M8.125 25H2.5" stroke="#396283" stroke-width="4" stroke-linecap="round" stroke-linejoin="round"/>
</svg>
