<svg width="102" height="102" viewBox="0 0 102 102" fill="none" xmlns="http://www.w3.org/2000/svg">
<path d="M73.1 42.5425C76.16 42.7125 79.0925 44.0725 81.26 46.24C83.555 48.535 85 51.7225 85 55.25C85 58.7775 83.555 61.965 81.26 64.26C78.965 66.555 75.7775 68 72.25 68" stroke="#406F93" stroke-width="4.5" stroke-linecap="round" stroke-linejoin="round"/>
<path d="M63.75 29.7501C63.75 27.7951 63.325 25.9251 62.5175 24.2676C61.71 22.6101 60.605 21.1651 59.2025 19.9751C57.8 18.7851 56.185 17.9351 54.3575 17.4251C52.53 16.9151 50.575 16.8301 48.535 17.2126C47.2175 17.4676 45.985 17.8926 44.8375 18.5301C43.69 19.1676 42.67 19.9751 41.735 20.9101C40.8 21.8451 40.0775 22.9501 39.4825 24.0976C38.8875 25.2451 38.505 26.5201 38.335 27.8801C38.335 28.0501 38.2925 28.2201 38.2925 28.3901C38.2925 28.5601 38.2925 28.7301 38.2925 28.9001C38.2925 29.0701 38.2925 29.2401 38.2925 29.4101C38.2925 29.5801 38.2925 29.7501 38.2925 29.9201C38.2925 30.4726 38.2075 31.0251 38.0375 31.4926C37.8675 31.9601 37.6125 32.4276 37.2725 32.8101C36.9325 33.1926 36.55 33.4901 36.0825 33.7026C35.615 33.9151 35.105 34.0001 34.5525 34.0001C32.64 34.0001 30.8125 34.2551 29.0275 34.8076C27.2425 35.3601 25.6275 36.2101 24.14 37.2726C22.6525 38.3351 21.335 39.6526 20.2725 41.1401C19.21 42.6276 18.4025 44.3276 17.8925 46.1551C17.085 49.0026 17.0425 51.8076 17.5525 54.4001C18.0625 56.9926 19.21 59.3726 20.74 61.3701" stroke="#406F93" stroke-width="4.5" stroke-linecap="round" stroke-linejoin="round"/>
<path d="M43.86 62.6025L33.915 72.5475" stroke="#406F93" stroke-width="4.5" stroke-linecap="round" stroke-linejoin="round"/>
<path d="M44.2 45.0076L38.165 51.0001" stroke="#406F93" stroke-width="4.5" stroke-linecap="round" stroke-linejoin="round"/>
<path d="M61.2425 62.0076L55.25 68.0001" stroke="#406F93" stroke-width="4.5" stroke-linecap="round" stroke-linejoin="round"/>
</svg>
