<svg width="191" height="191" viewBox="0 0 191 191" fill="none" xmlns="http://www.w3.org/2000/svg">
<g filter="url(#filter0_d_236_437)">
<path fill-rule="evenodd" clip-rule="evenodd" d="M167.058 99.2472C165.091 99.1457 163.588 97.4686 163.588 95.4992C163.588 93.5298 165.091 91.8526 167.058 91.7512L174.593 91.3626C176.999 91.2384 179.063 93.0894 179.063 95.4992C179.063 97.9089 176.999 99.7599 174.593 99.6358L167.058 99.2472ZM154.473 61.4455C155.46 63.1498 157.601 63.8553 159.355 62.9599L166.064 59.5347C168.217 58.4356 169.078 55.7868 167.867 53.6948C166.656 51.6028 163.938 51.0405 161.912 52.3588L155.599 56.4673C153.948 57.5413 153.487 59.7412 154.473 61.4455ZM129.554 36.5257C131.258 37.512 133.458 37.0509 134.532 35.4005L138.64 29.0868C139.959 27.0609 139.396 24.3428 137.304 23.1322C135.212 21.9215 132.564 22.7824 131.465 24.9351L128.039 31.6441C127.144 33.3978 127.849 35.5395 129.554 36.5257ZM95.5001 27.4112C97.4694 27.4112 99.1466 25.9085 99.248 23.9417L99.6366 16.4063C99.7608 13.9998 97.9098 11.9366 95.5001 11.9366C93.0903 11.9366 91.2393 13.9998 91.3634 16.4063L91.7521 23.9417C91.8535 25.9085 93.5307 27.4112 95.5001 27.4112ZM61.4464 36.5258C63.1506 35.5395 63.8562 33.3978 62.9608 31.6441L59.5356 24.9351C58.4365 22.7824 55.7877 21.9216 53.6957 23.1322C51.6037 24.3428 51.0414 27.0609 52.3597 29.0868L56.4682 35.4005C57.5422 37.0509 59.7421 37.512 61.4464 36.5258ZM36.5266 61.4455C37.5129 59.7412 37.0518 57.5413 35.4014 56.4674L29.0876 52.3588C27.0618 51.0406 24.3437 51.6028 23.1331 53.6948C21.9224 55.7868 22.7833 58.4356 24.936 59.5347L31.645 62.9599C33.3987 63.8553 35.5404 63.1498 36.5266 61.4455ZM23.9426 91.7512C25.9094 91.8526 27.4121 93.5298 27.4121 95.4992C27.4121 97.4686 25.9094 99.1457 23.9426 99.2472L16.4072 99.6358C14.0007 99.7599 11.9375 97.9089 11.9375 95.4992C11.9375 93.0894 14.0007 91.2384 16.4072 91.3626L23.9426 91.7512ZM36.5266 129.553C35.5404 127.849 33.3987 127.143 31.645 128.038L24.936 131.464C22.7833 132.563 21.9224 135.212 23.1331 137.304C24.3437 139.396 27.0618 139.958 29.0876 138.639L35.4014 134.531C37.0518 133.457 37.5129 131.257 36.5266 129.553ZM61.4464 154.473C59.7421 153.486 57.5422 153.947 56.4682 155.598L52.3597 161.912C51.0414 163.937 51.6037 166.656 53.6957 167.866C55.7877 169.077 58.4365 168.216 59.5356 166.063L62.9608 159.354C63.8562 157.6 63.1506 155.459 61.4464 154.473ZM95.5001 163.587C93.5307 163.587 91.8535 165.09 91.7521 167.057L91.3634 174.592C91.2393 176.999 93.0903 179.062 95.5001 179.062C97.9098 179.062 99.7608 176.999 99.6367 174.592L99.248 167.057C99.1466 165.09 97.4694 163.587 95.5001 163.587ZM129.554 154.473C127.849 155.459 127.144 157.6 128.039 159.354L131.465 166.063C132.564 168.216 135.212 169.077 137.304 167.866C139.396 166.656 139.959 163.937 138.64 161.912L134.532 155.598C133.458 153.947 131.258 153.486 129.554 154.473ZM154.473 129.553C153.487 131.257 153.948 133.457 155.599 134.531L161.912 138.639C163.938 139.958 166.656 139.396 167.867 137.304C169.078 135.212 168.217 132.563 166.064 131.464L159.355 128.038C157.601 127.143 155.46 127.849 154.473 129.553Z" fill="url(#paint0_linear_236_437)"/>
<path d="M152.756 95.4992C152.756 127.121 127.122 152.755 95.5 152.755C63.8785 152.755 38.2442 127.121 38.2442 95.4992C38.2442 63.8776 63.8785 38.2433 95.5 38.2433C127.122 38.2433 152.756 63.8776 152.756 95.4992Z" fill="#FFE35D"/>
</g>
<defs>
<filter id="filter0_d_236_437" x="3.63753" y="3.63665" width="183.725" height="183.725" filterUnits="userSpaceOnUse" color-interpolation-filters="sRGB">
<feFlood flood-opacity="0" result="BackgroundImageFix"/>
<feColorMatrix in="SourceAlpha" type="matrix" values="0 0 0 0 0 0 0 0 0 0 0 0 0 0 0 0 0 0 127 0" result="hardAlpha"/>
<feOffset/>
<feGaussianBlur stdDeviation="4.15"/>
<feComposite in2="hardAlpha" operator="out"/>
<feColorMatrix type="matrix" values="0 0 0 0 0 0 0 0 0 0 0 0 0 0 0 0 0 0 0.06 0"/>
<feBlend mode="normal" in2="BackgroundImageFix" result="effect1_dropShadow_236_437"/>
<feBlend mode="normal" in="SourceGraphic" in2="effect1_dropShadow_236_437" result="shape"/>
</filter>
<linearGradient id="paint0_linear_236_437" x1="44.7022" y1="26.414" x2="95.5001" y2="179.062" gradientUnits="userSpaceOnUse">
<stop stop-color="#FFEE97"/>
<stop offset="1" stop-color="#FFD400"/>
</linearGradient>
</defs>
</svg>
