<svg width="67" height="70" viewBox="0 0 67 70" fill="none" xmlns="http://www.w3.org/2000/svg">
<path d="M41.875 26.25C41.875 25.0542 42.0983 23.8875 42.545 22.8375C42.9917 21.7875 43.5779 20.8542 44.3317 20.0667C45.0854 19.2792 45.9788 18.6375 46.9838 18.2C47.9888 17.7625 49.0775 17.5 50.25 17.5C51.4225 17.5 52.5113 17.7333 53.5163 18.2C54.5213 18.6667 55.4146 19.2792 56.1683 20.0667C56.9221 20.8542 57.5363 21.7875 57.955 22.8375C58.3738 23.8875 58.625 25.025 58.625 26.25C58.625 27.475 58.4017 28.6125 57.955 29.6625C57.5083 30.7125 56.9221 31.6458 56.1683 32.4333C55.4146 33.2208 54.5213 33.8625 53.5163 34.3C52.5113 34.7375 51.4225 35 50.25 35H16.75" stroke="#406F93" stroke-width="4.5" stroke-linecap="round" stroke-linejoin="round"/>
<path d="M41.875 52.5C41.875 53.6958 42.0984 54.8625 42.545 55.9125C42.9917 56.9625 43.5779 57.8958 44.3317 58.6833C45.0854 59.4708 45.9788 60.1125 46.9838 60.55C47.9888 60.9875 49.0775 61.25 50.25 61.25C51.4225 61.25 52.5113 61.0167 53.5163 60.55C54.5213 60.0833 55.4146 59.4708 56.1684 58.6833C56.9221 57.8958 57.5363 56.9625 57.955 55.9125C58.3738 54.8625 58.625 53.725 58.625 52.5C58.625 51.275 58.4017 50.1375 57.955 49.0875C57.5084 48.0375 56.9221 47.1042 56.1684 46.3167C55.4146 45.5292 54.5213 44.8875 53.5163 44.45C52.5113 44.0125 51.4225 43.75 50.25 43.75H11.1667" stroke="#406F93" stroke-width="4.5" stroke-linecap="round" stroke-linejoin="round"/>
<path d="M16.75 17.5C16.75 16.3042 16.9733 15.1375 17.42 14.0875C17.8667 13.0375 18.4529 12.1042 19.2067 11.3167C19.9604 10.5292 20.8538 9.8875 21.8588 9.45C22.8638 9.0125 23.9525 8.75 25.125 8.75C26.2975 8.75 27.3863 8.98333 28.3913 9.45C29.3963 9.91667 30.2896 10.5292 31.0433 11.3167C31.7971 12.1042 32.4113 13.0375 32.83 14.0875C33.2488 15.1375 33.5 16.275 33.5 17.5C33.5 18.725 33.2767 19.8625 32.83 20.9125C32.3833 21.9625 31.7971 22.8958 31.0433 23.6833C30.2896 24.4708 29.3963 25.1125 28.3913 25.55C27.3863 25.9875 26.2975 26.25 25.125 26.25H8.375" stroke="#406F93" stroke-width="4.5" stroke-linecap="round" stroke-linejoin="round"/>
</svg>
